<?xml version="1.0" encoding="utf-8"?>
<!-- Generator: Adobe Illustrator 18.0.0, SVG Export Plug-In . SVG Version: 6.00 Build 0)  -->
<!DOCTYPE svg PUBLIC "-//W3C//DTD SVG 1.1//EN" "http://www.w3.org/Graphics/SVG/1.1/DTD/svg11.dtd">
<svg version="1.1" id="Layer_1" xmlns="http://www.w3.org/2000/svg" xmlns:xlink="http://www.w3.org/1999/xlink" x="0px" y="0px"
	 viewBox="0 188.1 612 415.8" enable-background="new 0 188.1 612 415.8" xml:space="preserve">
<g>
	<path fill="#010101" d="M440.3,470.4c0-1.2-0.3-1.5-1.5-1.5c-0.6,0-1.5,0-2.1,0c-3.1-0.3-4.3-0.9-4.6-4.3c0-0.9,0-1.5,0-2.4
		c0-10.4,0-20.8,0-31.5c0-4,0-8,0-11.9c0-4,0.9-4.9,4.9-5.2c0.6,0,1.2-0.3,1.8,0c1.5,0.3,1.2-0.9,1.5-1.8c0-1.2-0.3-1.2-1.5-1.2
		c-3.7,0.3-7.3,0.3-11,0c-2.8-0.3-2.8,0-4,2.4c-7,15.6-14.4,30.9-21.4,46.5c-0.3-0.6-0.6-1.2-0.9-1.5c-7.3-15.3-14.4-30.9-21.7-46.2
		c-0.3-0.6-0.6-1.5-1.5-1.2c-4.3,0.3-8.9,0.3-13.2,0c-0.3,0-0.9-0.3-0.9,0.3c0,0.9-0.3,1.5,0,2.4c0.3,0.6,0.9,0.3,1.5,0.3
		c0.9,0,1.8,0,3.1,0.3c1.5,0.3,2.8,1.2,3.1,2.8c0.3,1.2,0.3,2.4,0.3,3.7c0,13.8,0,27.8,0,41.6c0,1.2,0,2.1-0.3,3.4
		c-0.3,1.8-1.2,3.1-3.1,3.4c-4,0.9-7.3,0.3-10.4-3.1c-5.8-6.1-11.3-12.5-16.8-18.7c-0.6-0.6-0.3-0.9,0.3-1.2c2.4-2.4,4.6-4.9,7-7.3
		c3.1-3.4,7-5.5,11.6-5.2c1.2,0,1.2-0.3,1.2-1.5c0-1.2-0.6-1.2-1.5-1.2c-3.7,0-7,0-10.7,0c-1.5,0-2.4,0-2.4,1.8
		c0,0.3-0.3,0.6-0.3,0.9c-2.4,6.1-7.3,10.1-12.2,14.4v-1.8c0-11.3,0-23,0-34.3c0-0.6,0.3-1.5-0.9-1.2c-4.3,0-8.6,0-12.9,0
		c-0.6,0-0.6,0.3-0.9,0.9c-0.3,2.1-0.3,2.1,1.8,2.1c0.3,0,0.6,0,0.9,0c4,0.3,4.9,1.2,4.9,4.9c0,15.3,0,30.3,0,45.6
		c0,0.6,0,0.9,0,1.5c0,0.9-0.3,1.8-1.2,2.4c-2.1,1.2-4.6,1.5-7,0.3c-1.8-0.9-1.8-2.8-1.8-4.6c0-4.3,0-8.3,0-12.5c0-4,0-8-0.3-12.2
		c-0.6-4.9-2.4-8-6.7-8.9c-5.8-1.2-11.6-0.9-16.8,3.1c-0.9,0.6-1.5,1.5-2.8,1.8c0-1.2,0-2.8,0-4c0-0.6,0-0.9-0.9-0.9
		c-4.3,0-8.3,0-12.5,0c-0.6,0-0.9,0.3-0.9,0.9c0,1.2,0,2.1,1.8,1.8c0.6,0,1.2,0,1.8,0c3.1,0.3,3.7,0.9,4,4c0,0.6,0,1.5,0,2.4
		c0,7.3,0,15,0,22.3c0,1.2,0,2.4-0.3,3.7c-0.3,1.5-0.9,2.4-2.4,2.8c-1.5,0.3-3.1,0.3-4.6,0.3c-2.4-0.3-3.1-0.9-3.4-3.4
		c0-0.9-0.3-2.1-0.3-3.4c0-5.8,0-11.9,0-17.7c0-1.8,0-4-0.3-5.8c-0.6-4.6-3.1-7-7.6-8.3c-3.1-0.9-6.4-0.6-9.5-0.3
		c-2.4,0.3-4.6,0.9-6.7,2.1c-3.4,1.8-4.6,4.9-4.6,8.6c0,2.1,1.2,3.1,3.4,3.1c2.1,0,3.1-0.9,3.1-3.1c0-0.9,0-1.8,0.3-2.8
		c0.6-3.1,1.5-4.3,4.6-4.9c1.8-0.3,3.4-0.3,5.2,0c3.7,0.6,5.2,2.8,5.5,6.4c0,2.4,0,4.9,0,7.3c0,1.2-0.3,1.5-1.5,1.5
		c-4.3,0-8.9-0.3-13.2,0.6c-5.2,0.9-8.3,4-8.9,8.6c-0.3,1.8-0.3,3.7,0,5.5c0.6,4.3,2.4,7.6,6.7,8.9c5.8,1.5,11.6,1.5,16.8-2.8
		c0.3,0,0.3-0.3,0.6,0c0,0.3,0,0.9,0,1.2c-0.3,1.5,0.3,1.8,1.8,1.8c9.5,0,18.7,0,28.2,0c1.2,0,1.5-0.3,1.5-1.5s-0.3-1.5-1.5-1.5
		c-0.6,0-1.2,0-1.8,0c-2.8-0.3-4-1.2-4-4c0-6.7,0-13.5,0-20.2c0-1.2,0-2.4,0.3-3.4c0.6-3.4,2.4-5.8,5.8-6.7c2.1-0.6,4.3-0.6,6.1-0.3
		c2.8,0.3,4.9,2.1,5.8,4.9c0.3,1.5,0.6,3.1,0.6,4.9c0,6.7,0,13.8,0,20.5c0,0.6,0,1.5-0.3,2.1c-0.3,1.2-0.9,1.8-2.1,2.1
		c-1.2,0.3-2.4,0.3-3.7,0.3c-1.5,0-1.2,1.2-1.2,2.1c0,1.2,0.6,0.9,1.2,0.9c3.7,0,7.3,0,11.3,0c8.6,0,17.1,0,25.4,0
		c0.9,0,1.2-0.3,1.2-1.2c0-1.5-0.6-1.8-1.8-1.8c-0.6,0-0.9,0-1.5,0c-3.4-0.3-4.3-1.2-4.3-4.6c0-4.3,0-8.6,0-13.5
		c0.6,0.6,0.9,0.9,1.2,1.2c5.8,5.5,11,11.9,15.9,18.7c0.6,0.9,1.2,1.2,2.4,1.2c3.4,0,6.4,0,9.8,0c6.1,0,12.5,0,18.7,0
		c0.3,0,0.9,0.3,1.2-0.3c0.6-1.8,0-2.8-1.8-2.8c-0.9,0-1.8,0-2.8-0.3c-1.8-0.3-2.8-1.2-3.1-3.4c0-0.9,0-2.1,0-3.4
		c0-12.9,0-25.7,0-38.6c0-0.6,0-0.9,0.3-1.5c0.3,0.6,0.6,0.9,0.9,1.5c5.8,12.5,11.3,24.8,17.1,37.3c1.5,3.7,3.4,7,4.9,10.7
		c0.3,0.6,0.6,0.9,1.2,0.9c0.6,0,0.9-0.6,1.2-0.9c0-0.3,0.3-0.6,0.3-0.6c4.9-11,10.1-22,15-33.4c2.4-5.5,4.9-11,7.3-16.8h0.3v0.9
		c0,13.8,0,27.5,0,41.3c0,0.6,0,1.5-0.3,2.1c-0.3,2.1-0.9,2.8-3.4,3.4c-1.2,0.3-2.1,0.3-3.4,0.3c-1.5-0.3-1.2,0.9-1.2,1.8
		s0,1.5,1.2,1.5c7,0,14.1,0,21.1,0C439.7,471.9,440.3,471.6,440.3,470.4z M266.8,457.2L266.8,457.2c0,1.5,0,3.1,0,4.9
		c-0.3,4-1.8,6.1-5.8,6.7c-1.5,0.3-3.4,0.3-4.9,0c-3.1-0.6-4.6-2.4-5.2-6.1c-0.3-2.1-0.3-4.3,0.3-6.4c0.9-2.8,2.8-4.3,5.5-4.9
		c3.4-0.6,6.7-0.3,10.1-0.3c0.6,0,0.6,0.3,0.6,0.9C266.8,453.8,266.8,455.7,266.8,457.2z"/>
	<path fill="#010101" d="M469.4,335.1c0-0.6,0.3-1.5-0.9-1.2c-6.1,0.3-12.2-0.3-18.1,0.3c-7,0.9-12.2,4.3-15,11.3
		c-1.2,2.8-1.5,5.8-1.5,9.2c0,5.2,0,10.4,0,15.6c0,1.2-0.3,1.2-1.2,1.2c-6.1,0-12.2,0-18.4,0c-1.2,0-1.5-0.3-1.5-1.5
		c0-7.6,0-15,0-22.6c0-0.6,0-1.2-0.3-1.8c-1.8,0.6-3.7,1.2-5.8,1.5c-0.9,0.3-1.2,0.6-1.2,1.5c0,6.1,0,12.2,0,18.4
		c0,2.8-0.6,3.4-3.4,3.7c-3.1,0.6-6.1,0-9.2,0.3c-1.2,0-1.5-0.3-1.5-1.5c0-5.8,0-11.3,0-17.1c0-0.9,0-1.2-1.2-0.9
		c-1.5,0.6-3.4,0.9-4.9,1.2c-0.9,0.3-1.2,0.6-1.2,1.5c0,4.3,0,8.3,0,12.5c0,2.8-0.6,3.4-3.4,3.7c-3.1,0.6-6.4,0-9.5,0.3
		c-0.9,0-1.2-0.3-1.2-1.2c0-3.7,0-7.3,0-11c0-1.2-0.3-1.5-1.5-1.2c-1.5,0.6-3.1,0.9-4.6,1.2c-0.9,0.3-1.2,0.6-1.2,1.5
		c0,2.4,0,4.6,0,7c0,1.5-0.6,2.4-2.1,2.8s-3.1,0.6-4.6,0.6c-10.4,0-21.1,0-31.5,0h-1.5c6.1-4.6,8.6-10.1,8.3-17.7
		c0-6.1,0-12.2,0-18.4c0-1.2-0.3-1.2-1.2-1.2c-11.9,0-23.9,0-35.8,0c-1.2,0-1.2,0.3-1.2,1.2c0,6.4,0,12.5,0,19c0,1.8,0,3.7,0.3,5.5
		c1.2,6.1,5.5,10.4,11,11.3c0.3,0,0.3,0,0.3-0.6c-0.3-0.3-0.3-0.3-0.6-0.6c-4.9-2.4-6.7-7-7.3-11.9c-0.6-4.6-0.3-9.5-0.3-14.4
		c0-1.5,0.3-1.8,1.8-1.8c8,0,15.9,0,23.9,0c1.2,0,1.5,0.3,1.5,1.5c0,4.3,0,8.9,0,13.2c0,1.8-0.3,3.7-0.9,5.2
		c-1.5,5.2-4.9,8-10.1,8.9c-2.1,0.3-4.3,0-6.1,0.3c0,0,0,0-0.3,0.3c-0.6,0.6-1.2,0.3-1.8,0.3c-12.9,0-25.7,0-38.9,0
		c-1.2,0-1.5-0.3-1.5-1.5c0-11.6,0-23,0-34.6c0-0.6,0.3-1.5-0.9-1.5c-7,0-14.4,0-21.4,0c-5.2,0-10.1,1.5-14.1,4.9
		c-7.3,5.8-10.4,14.1-11.9,23c0,0.3,0,0.6,0.3,0.3c1.2-1.2,1.2-2.8,1.8-4.3c4-9.5,11-14.7,21.1-15.9c5.2-0.6,10.1-0.3,15.3-0.3
		c1.8,0,1.8,0,1.8,2.1c0,8.3,0,16.8,0,25.1c0,2.1,0,2.1-2.1,2.1c-12.5,0-24.8,0-37.3,0c-0.6,0-1.2,0-1.8-0.3
		c-0.3-0.3-0.3-0.6-0.3-0.9c0-2.1-0.3-4.3-0.3-6.4c0-15.9,0-32.1,0-48c0-0.6,0-1.2,0-1.5c0,0,0-0.3-0.3-0.3c-4.3,0-8.9,0-13.2,0
		c-0.6,0-0.6,0.3-0.6,0.6c0,1.2,0,2.1,1.5,1.8c0.6,0,1.2,0,1.8,0c2.1,0.3,3.4,1.2,3.7,3.4c0,0.6,0,1.2,0,1.8c0,16.2,0,32.1,0,48.3
		c0,0.3,0,0.6,0,0.9c0,0.6-0.3,0.9-0.9,0.9c-2.1,0-4.3,0-6.7,0s-3.7-1.5-4-4c-0.3-1.2-0.3-2.4-0.3-4c0-0.9,0-1.2-1.2-1.2
		c-0.9,0-1.5,0-1.2,1.2c0,3.1,0,6.4,0,9.5c0,1.5,0.3,1.8,2.1,1.8c88.4,0,176.9,0,265.3,0c0.3,0,0.6,0,1.2,0c4,0,7.3-3.4,7.3-7.3
		c0-1.8,0-3.4,0-5.2C469.4,353.2,469.4,344,469.4,335.1z M462.4,355c0,4,0,8,0,12.2c0,2.4-0.6,3.4-3.4,3.7c-2.8,0.6-5.8,0.3-8.6,0.3
		c-2.8,0-5.5,0-8.3,0c-0.6,0-1.2,0-0.9-0.9c0-6.1-0.3-12.2,0.3-18.7c0.6-6.4,4-9.8,10.4-10.4c3.1-0.3,6.1,0,9.5-0.3
		c0.9,0,1.2,0.3,1.2,1.2C462.4,346.4,462.4,350.7,462.4,355z"/>
	<path fill="#EB3629" d="M67.3,434.6c5.2,1.2,10.7,2.8,15.9,3.7c18.7,3.1,37,3.4,55.1-2.4c12.5-4,23.6-11,32.7-20.8
		c0.3-0.3,0.6-0.6,1.2-1.2c0.3,4,0.6,7.6,0.9,11.3c0.9,10.7,1.8,21.4,2.8,32.1c0.3,4,0.6,8,0.9,11.9c0,1.2-0.3,1.8-1.5,1.8
		c-20.8,3.1-41,0.6-60.6-6.7c-16.8-7-32.1-16.2-45.6-28.2C68.5,435.5,67.9,434.9,67.3,434.6z"/>
	<path fill="#EB3629" d="M56.9,339.7c2.8-2.1,5.2-4,7.7-5.5c11.9-8.9,23.9-17.7,35.8-26.6c0.9-0.6,1.5-0.6,2.1,0.3
		c11.6,15.6,19.3,32.7,23.6,51.7c3.4,15.6,4.3,31.8,3.1,47.7c-0.3,5.2-1.2,10.4-2.1,15.3c0,0.3,0,0.6-0.6,0.9
		c-1.2-5.8-3.1-11.3-5.2-17.1c-5.2-14.4-12.2-27.8-22-39.5C88.1,353.5,74.4,344,56.9,339.7z"/>
	<path fill="#EB3629" d="M87.8,376.1c-2.1,2.1-4,4.3-5.8,6.1c-11.6,13.2-21.1,28.2-26.9,44.7c-3.7,10.4-5.5,21.1-5.5,32.1
		c0,6.7,1.2,13.5,2.8,19.9c0,0.3,0.3,0.6,0.3,0.9v0.3c-3.4-1.8-7-3.4-10.4-5.2c-12.5-6.1-24.8-12.2-37.3-18.1
		c-1.2-0.6-1.5-0.9-0.9-2.4c9.2-22,23.6-40.7,42.8-56c11.9-9.2,24.8-16.8,38.9-22C86.3,376.4,86.9,375.8,87.8,376.1z"/>
	<path fill="#010101" d="M486.2,345.2c0,8.3,0,16.5,0,24.5c0,1.2,0,1.5,1.5,1.5c11.3,0,22.9,0,34.3,0c1.5,0,3.1-0.3,4.3-0.6
		c1.5-0.3,2.1-1.2,2.1-2.8c0-15.6,0-31.2,0-46.8c0-2.8-2.1-4.6-5.8-4.9c-0.9,0-1.5-0.3-1.5-1.2c0-1.2,0.3-1.5,1.5-1.5
		c3.7,0,7.7,0,11.3,0c1.2,0,1.5,0.3,1.5,1.5c0,18.4,0,36.4,0,54.8c0,1.5,0.3,1.8,1.8,1.8c7.7,0,15.3,0,22.6,0c5.5,0,6.1-0.6,6.1-6.1
		c0-5.2,0-10.7,0-15.9c0-0.9,0.3-1.5,1.2-1.8c1.8-0.6,4-1.2,5.8-2.1c0,2.1,0,4,0,6.1c0,6.1,0,12.2,0,18.4c0,1.2,0.3,1.2,1.2,1.2
		c6.1,0,12.5,0,18.7,0c0.3,0,0.6,0,0.9,0c4.3,0,4.9-0.9,4.9-5.2c0-8,0-15.9,0-23.6c0-4.9-0.9-5.8-5.8-6.1c-0.9,0-1.5-0.3-1.5-1.2
		s0.3-1.2,1.2-1.2c4,0,7.7,0,11.6,0c0.9,0,1.2,0.3,1.2,1.2c0,11,0,21.7,0,32.7c0,4-3.4,7.3-7.3,7.3c-8.9,0-17.4,0-26.3,0
		c-28.5,0-56.6,0-85.1,0c-4.9,0-8.6-4-8.6-8.6c0.3-5.8,0-11.6,0-17.4c0-0.9,0.3-1.2,1.2-1.5C481.9,346.7,484.1,346.1,486.2,345.2z"
		/>
	<path fill="#010101" d="M241.1,452c-0.6-5.8-3.1-10.1-8.9-11.9c-1.2-0.3-2.8-0.6-4.3-0.9c0.6-0.3,1.2-0.3,1.5-0.3
		c4.6-1.2,8.3-3.7,9.8-8.6c0.9-3.4,0.9-6.7,0-9.8c-0.9-4.9-3.7-8-8.6-9.2c-1.5-0.3-3.1-0.6-4.9-0.9c-4.3-0.3-8.9,0-13.2,0
		c-5.8,0-11.6,0-17.4,0c-0.9,0-1.8-0.3-1.8,1.2c0,1.2-0.3,2.1,1.5,1.8c0.9,0,1.8,0,3.1,0.3c2.4,0.3,3.4,1.2,3.7,3.7
		c0,0.9,0,1.8,0,2.8c0,14.1,0,28.2,0,42.2c0,1.2,0,2.1-0.3,3.4c-0.3,1.8-0.9,2.8-2.8,3.1c-1.2,0.3-2.8,0.6-4,0.3
		c-1.5-0.3-1.2,0.9-1.2,1.8c0,1.2,0.3,1.2,1.5,1.2c8,0,15.6,0,23.6,0c3.7,0,7-0.3,10.4-0.9c5.5-1.2,9.8-4,11.6-9.8
		C241.4,458.1,241.4,455.1,241.1,452z M210.2,414.4c4.6-0.3,9.2-0.6,13.8,0c4,0.6,6.4,2.8,7,6.7c0.6,3.4,0.6,6.7-0.3,10.1
		c-0.9,4.3-3.7,6.4-8,6.7c-4,0.3-8,0-11.9,0.3c-0.9,0-1.2-0.3-1.2-1.2c0-3.4,0-7,0-10.4c0-3.7,0-7,0-10.7
		C209.6,415,209.3,414.4,210.2,414.4z M231.9,461.2c-0.9,3.1-2.8,5.2-6.1,5.8c-5.2,1.2-10.1,0.9-15.3,0.9c-0.9,0-0.9-0.6-0.9-1.2
		c0-4.3,0-8.3,0-12.5c0-4,0-8,0-11.9c0-0.6-0.3-1.2,0.6-1.2c4.6,0.3,9.2-0.3,13.8,0.3c4.9,0.6,7.3,2.8,8.3,8
		C233.2,453.5,232.9,457.5,231.9,461.2z"/>
	<path fill="#010101" d="M467.6,467c-4.9,4.3-10.1,5.8-16.2,5.2c-6.1-0.6-9.5-4.3-9.5-10.7c0-7.6,0-15,0-22.6c0-4.9-0.6-5.5-5.8-5.8
		c-0.9,0-1.8,0.3-1.8-1.2c0-1.2,0.3-1.5,1.5-1.5c4,0,7.6,0,11.6,0c0.9,0,1.2,0.3,1.2,1.2c0,8.3,0,16.8,0,25.1c0,2.1,0,4.3,0.6,6.1
		c0.9,3.7,2.4,5.2,6.1,5.5c1.8,0.3,4,0.3,5.8-0.3c4-0.9,5.5-4,6.1-7.6c0.3-2.1,0.3-4.3,0.3-6.4c0-5.5,0-11.3,0-16.8
		c0-3.1-1.2-4-4-4.3c-0.6,0-0.9,0-1.5,0c-1.5,0-2.1-0.9-1.5-2.4c0-0.6,0.6-0.6,0.9-0.6c4.3,0,8.3,0,12.5,0c0.9,0,0.6,0.6,0.6,1.2
		c0,4.9,0,9.8,0,14.4c0,5.5,0,11,0,16.2c0,0.9,0,2.1,0.3,3.1c0.3,2.1,1.2,3.1,3.4,3.4c0.9,0,1.8,0.3,2.8,0.3c1.2,0,1.5,0.3,1.5,1.5
		c0,1.2-0.3,1.5-1.5,1.5c-4,0-8,0-11.9,0c-1.2,0-1.5-0.3-1.5-1.5C467.6,469.4,467.6,468.2,467.6,467z"/>
	<path fill="#010101" d="M587.2,468.8c-0.6,0-1.2,0-1.8-0.3c-1.5-0.3-2.4-1.2-2.8-2.8c0-0.9-0.3-1.5-0.3-2.4c0-6.4,0-12.9,0-19.3
		c0-1.8,0-3.4-0.3-5.2c-0.6-3.7-2.1-7-6.1-8.3c-5.5-1.8-11.3-1.5-16.8,0.6c-4,1.5-6.1,5.2-5.8,9.5c0,1.8,1.2,2.8,3.4,2.8
		s3.1-0.9,3.1-2.8c0-0.9,0-1.5,0-2.4c0.3-3.4,1.5-4.9,4.9-5.5c1.5-0.3,3.4-0.3,5.2,0c3.7,0.6,5.5,2.8,5.5,6.4c0,2.4,0,4.9,0,7.3
		c0,1.2-0.3,1.5-1.5,1.5c-4.6,0-8.9-0.3-13.5,0.6s-8,3.4-8.9,8.3c-0.6,2.8-0.3,5.8,0.6,8.6c0.9,2.8,2.8,4.9,5.5,5.8
		c3.4,1.2,6.7,1.2,10.1,0.9c2.8-0.3,5.5-1.8,8-3.7c0,0.9,0,1.5,0,2.1c-0.3,1.2,0.3,1.2,1.2,1.2c3.7,0,7.3,0,11,0
		c0.3,0,0.9,0.3,1.2-0.6C589.4,469.4,589,468.8,587.2,468.8z M575.3,452.3c0,1.5,0,3.1,0,5.2c0,1.5,0.3,3.7-0.3,5.5
		c-0.9,4-2.8,5.8-6.7,6.1c-0.3,0-0.3,0-0.3,0c-7,0.6-8.9-3.4-8.9-8.3c0-1.2,0-2.4,0.3-3.7c0.9-4,3.4-5.5,8.3-5.8c2.4,0,4.6,0,7,0
		C575,451.1,575.3,451.4,575.3,452.3z"/>
	<path fill="#010101" d="M484.7,464.2c0-1.8,0-3.4,0-5.2c0-0.6,0.3-0.9,0.9-0.9c3.4,0,3.4-0.3,3.7,3.4c0,0.9,0,1.8,0.3,2.4
		c0.3,3.1,2.1,4.6,5.2,5.2c2.8,0.6,5.5,0.3,8.3-0.9c2.8-1.5,4.3-3.7,4.3-7c0-3.1-1.8-4.9-4.6-6.1c-3.1-1.5-6.4-1.8-9.8-3.1
		c-4-1.5-7-3.7-7.3-8.3c-0.6-7,2.4-12.2,10.1-14.1c5.2-0.9,10.1-0.6,15,0.9c0.9,0.3,1.2,0.9,1.2,1.8c0,2.8,0,5.5,0,8.6
		c0,0.9-0.3,0.9-0.9,0.9c-3.4,0-3.4,0-4-3.4c0-0.9,0-1.5-0.3-2.4c-0.3-2.4-1.8-3.7-4.3-4c-2.4-0.3-4.6-0.3-6.7,0.6
		c-1.8,0.6-2.8,1.8-3.4,3.7c-1.2,4.9,0.3,8,5.2,9.5c2.8,0.9,5.2,1.5,8,2.4c6.1,2.1,8.3,5.2,8.3,11.3c0,5.5-3.1,9.5-8.6,11
		c-6.1,1.8-12.5,2.1-18.7-0.3c-1.2-0.6-1.8-1.2-1.5-2.4C484.7,467,484.7,465.8,484.7,464.2z"/>
	<path fill="#010101" d="M549.3,463.9c0,0.6,0,1.2,0,2.1c0,3.4,0,3.4-3.1,4.6c-6.4,2.4-13.2,2.8-19.9,1.2c-5.8-1.2-9.2-5.2-10.4-11
		c-1.2-6.4-1.5-12.9,0-19c1.5-6.4,5.8-10.4,12.2-11.6c5.5-0.9,11-0.6,16.5,1.2c0.3,0,0.6,0.3,0.6,0.3c3.4,1.2,3.7,1.5,3.7,5.2
		c0,1.8,0,3.7,0,5.5c0,0.9-0.3,0.9-0.9,0.9c-3.4,0-3.4,0-3.7-3.1c-0.6-5.8-3.7-8-10.7-7.3c-6.4,0.3-9.5,3.4-10.7,9.8
		c-0.9,5.5-0.9,11.3,0,17.1c1.2,8.3,6.7,11,14.1,10.1c4.9-0.6,6.4-2.4,7-7.6v-0.3c0.3-3.4,0.6-3.4,4-3.1c0.6,0,0.6,0.6,0.6,0.9
		C549.3,461.2,549.3,462.7,549.3,463.9z"/>
	<path fill="#010101" d="M597,415.3c0,4.6,0,9.2,0,13.8c0,1.2,0.3,1.5,1.5,1.5c2.1,0,4.3,0,6.4,0c1.8,0,1.8,0.6,1.8,1.8
		s-0.3,1.5-1.5,1.5c-2.4,0-4.6,0-7,0c-0.9,0-1.2,0.3-1.2,1.2c0,8.9,0,18.1,0,26.9c0,0.9,0.3,2.1,0.3,3.1c0.9,3.4,3.4,4.6,6.4,4
		c0.9-0.3,1.8-0.6,2.8-0.9c0.6,0,0.9-0.9,1.2-0.3c0.6,0.6,0.6,1.2,0.9,2.1c0,0.3-0.3,0.3-0.3,0.6c-4,1.8-8.3,2.8-12.5,1.8
		c-3.7-0.6-5.2-3.4-5.8-6.7c-0.3-1.5-0.3-3.1-0.3-4.6c0-8.6,0-17.1,0-25.4c0-1.2-0.3-1.5-1.5-1.5s-2.1,0-3.4,0
		c-1.5,0.3-2.1-0.3-1.8-1.8c0-1.2,0.3-1.8,1.5-1.5c1.2,0,2.4,0,4,0c1.2,0,1.2-0.3,1.2-1.5c0-3.1,0-6.1,0-9.2c0-0.9,0.3-1.5,1.2-1.8
		C593,417.1,594.9,416.2,597,415.3z"/>
	<path fill="#020202" d="M494.2,356.2c1.2-5.5,4.9-8.3,10.4-9.2c-1.8-1.2-3.4-2.4-3.7-4.3c-0.6-2.8,0-5.8-0.3-8.6
		c0-0.9,0.6-0.6,0.9-0.6c2.4,0,4.9,0,7.6,0c1.5,0,2.4-0.6,2.8-2.1c0-0.6,0.3-0.9,0.9-0.9s0.6,0.6,0.6,0.9c0,1.8,0,3.7,0,5.5
		c0,0.9-0.3,0.9-1.2,0.9c-2.4,0-5.2,0-7.6,0c-0.9,0-1.2,0.3-1.2,1.2c0,1.2,0,2.4,0.3,3.7c0.3,2.4,2.1,4,4.9,4.3c1.8,0,3.4,0,5.2,0
		c0.3,0,0.9-0.3,0.9,0.6c0,1.2,0,2.4,0,3.7c0,0.9-0.9,0.6-1.2,0.6c-3.4,0-6.7-0.3-10.1,0.3c-3.7,0.6-7,1.5-9.2,4.9
		C493.9,356.8,493.9,356.5,494.2,356.2z"/>
	<path fill="#020202" d="M306.3,313.4c2.4,0,4.3,2.1,4.3,4.6s-1.8,4.3-4.3,4.3c-2.1,0-4.3-2.1-4.3-4.3
		C302,315.5,304.2,313.4,306.3,313.4z"/>
	<path fill="#020202" d="M322.5,317.7c0,2.4-1.8,4.3-4.3,4.3c-2.1,0-4.3-1.8-4.3-4.3s1.8-4.3,4.3-4.3S322.5,315.2,322.5,317.7z"/>
	<path fill="#020202" d="M607.1,387.7c0,2.4-1.8,4.3-4.3,4.3c-2.1,0-4.3-2.1-4.3-4.3c0-2.4,1.8-4.3,4.3-4.3
		C605,383.5,607.1,385.6,607.1,387.7z"/>
	<path fill="#020202" d="M569.8,325c2.4,0,4.3,1.8,4.3,4.3s-1.8,4.3-4.3,4.3c-2.1,0-4-1.8-4.3-4.3C565.5,326.8,567.3,325,569.8,325z
		"/>
	<path fill="#31302F" d="M304.8,370.6l0.3-0.3c0.6-0.3,1.2-0.3,1.5,0.6l0,0C306,370.9,305.4,370.9,304.8,370.6z"/>
	<path fill="#767373" d="M494.2,356.2c0,0.3,0.3,0.3,0.3,0.6s-0.3,0.6-0.3,0.9C493.6,357.1,493.6,356.8,494.2,356.2z"/>
</g>
</svg>
