<?xml version="1.0" encoding="utf-8"?>
<!-- Generator: Adobe Illustrator 18.0.0, SVG Export Plug-In . SVG Version: 6.00 Build 0)  -->
<!DOCTYPE svg PUBLIC "-//W3C//DTD SVG 1.1//EN" "http://www.w3.org/Graphics/SVG/1.1/DTD/svg11.dtd">
<svg version="1.1" id="Layer_1" xmlns="http://www.w3.org/2000/svg" xmlns:xlink="http://www.w3.org/1999/xlink" x="0px" y="0px"
	 viewBox="0 196 612 400" enable-background="new 0 196 612 400" xml:space="preserve">
<path fill="#139AD6" d="M473.1,358.6h-33c-1.9,0-3.9,1.9-4.9,3.9L421.6,448c0,1.9,1,2.9,2.9,2.9H442c1.9,0,2.9-1,2.9-2.9l3.9-24.3
	c0-1.9,1.9-3.9,4.9-3.9h10.7c22.3,0,35-10.7,37.9-32.1c1.9-8.7,0-16.5-3.9-21.4C492.5,361.5,483.8,358.6,473.1,358.6 M477,390.7
	c-1.9,11.7-10.7,11.7-19.4,11.7h-5.8l3.9-22.3c0-1,1-1.9,2.9-1.9h1.9c5.8,0,11.7,0,14.6,3.9C477,382.9,477,385.8,477,390.7"/>
<g>
	<path fill="#263B80" d="M235.1,358.6h-33c-1.9,0-3.9,1.9-4.9,3.9L183.6,448c0,1.9,1,2.9,2.9,2.9h15.5c1.9,0,3.9-1.9,4.9-3.9
		l3.9-23.3c0-1.9,1.9-3.9,4.9-3.9h10.7c22.3,0,35-10.7,37.9-32.1c1.9-8.7,0-16.5-3.9-21.4C254.5,361.5,246.7,358.6,235.1,358.6
		 M239,390.7c-1.9,11.7-10.7,11.7-19.4,11.7h-4.9l3.9-22.3c0-1,1-1.9,2.9-1.9h1.9c5.8,0,11.7,0,14.6,3.9
		C239,382.9,239.9,385.8,239,390.7"/>
	<path fill="#263B80" d="M335.1,389.7h-15.5c-1,0-2.9,1-2.9,1.9l-1,4.9l-1-1.9c-3.9-4.9-10.7-6.8-18.5-6.8
		c-17.5,0-33,13.6-35.9,32.1c-1.9,9.7,1,18.5,5.8,24.3s11.7,7.8,20.4,7.8c14.6,0,22.3-8.7,22.3-8.7l-1,4.9c0,1.9,1,2.9,2.9,2.9h14.6
		c1.9,0,3.9-1.9,4.9-3.9l8.7-54.4C338.1,391.6,336.1,389.7,335.1,389.7 M312.8,420.8c-1.9,8.7-8.7,15.5-18.5,15.5
		c-4.9,0-8.7-1.9-10.7-3.9c-1.9-2.9-2.9-6.8-2.9-11.7c1-8.7,8.7-15.5,17.5-15.5c4.9,0,7.8,1.9,10.7,3.9
		C311.8,412,312.8,416.9,312.8,420.8"/>
</g>
<path fill="#139AD6" d="M572.2,389.7h-15.5c-1,0-2.9,1-2.9,1.9l-1,4.9l-1-1.9c-3.9-4.9-10.7-6.8-18.5-6.8c-17.5,0-33,13.6-35.9,32.1
	c-1.9,9.7,1,18.5,5.8,24.3s11.7,7.8,20.4,7.8c14.6,0,22.3-8.7,22.3-8.7l-1,4.9c0,1.9,1,2.9,2.9,2.9h14.6c1.9,0,3.9-1.9,4.9-3.9
	l8.7-54.4C575.1,391.6,574.1,389.7,572.2,389.7 M549.8,420.8c-1.9,8.7-8.7,15.5-18.5,15.5c-4.9,0-8.7-1.9-10.7-3.9
	c-1.9-2.9-2.9-6.8-2.9-11.7c1-8.7,8.7-15.5,17.5-15.5c4.9,0,7.8,1.9,10.7,3.9C549.8,412,550.8,416.9,549.8,420.8"/>
<path fill="#263B80" d="M419.7,389.7h-16.5c-1.9,0-2.9,1-3.9,1.9l-21.4,33l-9.7-31.1c-1-1.9-1.9-2.9-4.9-2.9h-15.5
	c-1.9,0-2.9,1.9-2.9,3.9l17.5,51.5l-16.5,23.3c-1,1.9,0,4.9,1.9,4.9h15.5c1.9,0,2.9-1,3.9-1.9l53.4-76.7
	C423.5,392.6,421.6,389.7,419.7,389.7"/>
<path fill="#139AD6" d="M590.6,361.5L577,448.9c0,1.9,1,2.9,2.9,2.9h13.6c1.9,0,3.9-1.9,4.9-3.9l13.6-85.5c0-1.9-1-2.9-2.9-2.9
	h-15.5C592.6,358.6,591.6,359.6,590.6,361.5"/>
<path fill="#263B80" d="M111.7,329.5c-6.8-7.8-19.4-11.7-36.9-11.7H26.2c-2.9,0-5.8,2.9-6.8,5.8L0,450.9c0,2.9,1.9,4.9,3.9,4.9H34
	l7.8-47.6v1.9c1-2.9,3.9-5.8,6.8-5.8h14.6c28.2,0,49.5-11.7,56.3-43.7c0-1,0-1.9,0-2.9c-1,0-1,0,0,0
	C120.5,345,118.5,337.2,111.7,329.5"/>
<path fill="#139AD6" d="M118.5,357.6L118.5,357.6c0,1,0,1.9,0,2.9c-6.8,33-28.2,43.7-56.3,43.7H47.6c-2.9,0-5.8,2.9-6.8,5.8
	l-9.7,59.3c0,1.9,1,3.9,3.9,3.9h25.3c2.9,0,5.8-1.9,5.8-4.9v-1l4.9-30.1v-1.9c0-2.9,2.9-4.9,5.8-4.9h3.9c24.3,0,43.7-9.7,48.6-38.9
	c1.9-11.7,1-22.3-4.9-29.1C123.4,360.5,121.4,358.6,118.5,357.6"/>
<path fill="#232C65" d="M111.7,354.7c-1,0-1.9-1-2.9-1c-1,0-1.9,0-2.9-1c-3.9-1-7.8-1-12.6-1H55.4c-1,0-1.9,0-2.9,1
	c-1.9,1-2.9,2.9-2.9,4.9l-7.8,50.5v1.9c1-2.9,3.9-5.8,6.8-5.8h14.6c28.2,0,49.5-11.7,56.3-43.7c0-1,0-1.9,1-2.9
	c-1.9-1-2.9-1.9-4.9-1.9C112.7,354.7,112.7,354.7,111.7,354.7"/>
</svg>
